<svg width="40" height="40" viewBox="0 0 40 40" xmlns="http://www.w3.org/2000/svg">
  <circle cx="20" cy="20" r="18" fill="rgba(255,255,255,0.15)" stroke="rgba(255,255,255,0.6)" stroke-width="1.5"/>
  <path d="M20 10 C14 10, 10 14, 10 20 C10 26, 14 30, 20 30 C26 30, 30 26, 30 20 C30 14, 26 10, 20 10Z" fill="none" stroke="rgba(255,255,255,0.9)" stroke-width="1.5"/>
  <path d="M20 13 C20 13, 25 17, 25 22 C25 26, 22.8 28, 20 28 C17.2 28, 15 26, 15 22 C15 17, 20 13, 20 13Z" fill="rgba(255,255,255,0.7)"/>
  <circle cx="20" cy="19" r="3" fill="rgba(255,255,255,0.4)"/>
</svg>
